# xmcd
#
# Track frame offsets:
#	150
#	18825
#	31650
#	47775
#	61500
#	77925
#	93975
#	106350
#	125250
#	135300
#	151200
#	163725
#	178050
#
# Disc length: 2537 seconds
#
# Revision: 2
# Processed by: cddbd v1.5.1PL2 Copyright (c) Steve Scherf et al.
# Submitted via: audiograbber 1.83.01
#
DISCID=9409e70d
DTITLE=Various Artist - Love Melodies
DYEAR=1900
DGENRE=
TTITLE0=KAITI GREY - Mia gynaika mono kserei
TTITLE1=CHRISTOS TSIAMOULIS - Sta ksantha sou ta mallia
TTITLE2=M LOIZOS - Poso s' agapo
TTITLE3=ST XARHAKOS - Aponi Zoi
TTITLE4=M LOIZOS - Ola se thimizoun
TTITLE5=PENI XENAKI - Mia fora thimamai
TTITLE6=KAITI HOMATA - Na diokso ta synnefa
TTITLE7=ASTERIADI - Skliro mou agori
TTITLE8=KAITI HOMATA - Mia agapi gia to kalokairi
TTITLE9=G ZOGRAFOS - Akri den exei o ouranos
TTITLE10=KAITI HOMATA - Kian s'agapo den s'orizo
TTITLE11=ZOGRAFOS - Mi milas allo gia agapi
TTITLE12=VIOLARIS - Mia ksanthia ap'ti Mitilini
EXTD=
EXTT0=
EXTT1=
EXTT2=
EXTT3=
EXTT4=
EXTT5=
EXTT6=
EXTT7=
EXTT8=
EXTT9=
EXTT10=
EXTT11=
EXTT12=
PLAYORDER=
